<svg xmlns="http://www.w3.org/2000/svg" viewBox="0 0 560 400" width="560" height="400" role="img" aria-label="人体の方向用語と3つの断面（模式図）" font-family="'BIZ UDPGothic','Hiragino Kaku Gothic ProN','Yu Gothic','Noto Sans CJK JP','Noto Sans JP',sans-serif"><title>人体の方向用語と3つの断面（模式図）</title><rect width="560" height="400" fill="#ffffff"/><defs><marker id="ar" viewBox="0 0 10 10" refX="8.5" refY="5" markerWidth="7" markerHeight="7" orient="auto-start-reverse"><path d="M0,0 L10,5 L0,10 z" fill="#12705f"/></marker><marker id="am" viewBox="0 0 10 10" refX="8.5" refY="5" markerWidth="7" markerHeight="7" orient="auto-start-reverse"><path d="M0,0 L10,5 L0,10 z" fill="#b4531c"/></marker></defs><text x="110" y="22" font-size="13" fill="#0c4a40" text-anchor="middle" font-weight="bold">前から見る（正面）</text><circle cx="110" cy="54" r="20" fill="#dff0e9" stroke="#12705f" stroke-width="3"/><rect x="80" y="78" width="60" height="100" rx="12" fill="#dff0e9" stroke="#12705f" stroke-width="3"/><line x1="80" y1="86" x2="48" y2="154" stroke="#12705f" stroke-width="9" stroke-linecap="round"/><line x1="140" y1="86" x2="172" y2="154" stroke="#12705f" stroke-width="9" stroke-linecap="round"/><line x1="96" y1="180" x2="92" y2="269" stroke="#12705f" stroke-width="11" stroke-linecap="round"/><line x1="124" y1="180" x2="128" y2="269" stroke="#12705f" stroke-width="11" stroke-linecap="round"/><line x1="110" y1="26" x2="110" y2="280" stroke="#b4531c" stroke-width="3" stroke-dasharray="7 5"/><line x1="30" y1="150" x2="190" y2="150" stroke="#0c4a40" stroke-width="3" stroke-dasharray="7 5"/><text x="116" y="296" font-size="12" fill="#b4531c" text-anchor="middle" font-weight="bold">矢状面（左右に分ける）</text><text x="110" y="314" font-size="11" fill="#6b8077" text-anchor="middle" font-weight="normal">正中を通る面＝正中面</text><text x="110" y="144" font-size="12" fill="#0c4a40" text-anchor="middle" font-weight="bold">水平面</text><text x="300" y="22" font-size="13" fill="#0c4a40" text-anchor="middle" font-weight="bold">横から見る</text><circle cx="300" cy="54" r="20" fill="#dff0e9" stroke="#12705f" stroke-width="3"/><rect x="283" y="78" width="34" height="100" rx="12" fill="#dff0e9" stroke="#12705f" stroke-width="3"/><line x1="300" y1="86" x2="306" y2="159" stroke="#12705f" stroke-width="9" stroke-linecap="round"/><line x1="300" y1="180" x2="302" y2="269" stroke="#12705f" stroke-width="11" stroke-linecap="round"/><line x1="300" y1="26" x2="300" y2="280" stroke="#12705f" stroke-width="3" stroke-dasharray="7 5"/><text x="300" y="296" font-size="12" fill="#12705f" text-anchor="middle" font-weight="bold">前頭面（冠状面）</text><text x="300" y="314" font-size="11" fill="#6b8077" text-anchor="middle" font-weight="normal">前と後ろに分ける</text><text x="262" y="130" font-size="13" fill="#17261f" text-anchor="middle" font-weight="bold">前</text><text x="338" y="130" font-size="13" fill="#17261f" text-anchor="middle" font-weight="bold">後</text><rect x="380" y="14" width="168" height="30" rx="8" fill="#dff0e9" stroke="#12705f" stroke-width="2"/><text x="464.0" y="33.32" font-size="12" fill="#17261f" text-anchor="middle" font-weight="normal">上（頭側）⇔ 下（尾側）</text><rect x="380" y="52" width="168" height="30" rx="8" fill="#dff0e9" stroke="#12705f" stroke-width="2"/><text x="464.0" y="71.32" font-size="12" fill="#17261f" text-anchor="middle" font-weight="normal">前（腹側）⇔ 後（背側）</text><rect x="380" y="90" width="168" height="30" rx="8" fill="#dff0e9" stroke="#12705f" stroke-width="2"/><text x="464.0" y="109.32" font-size="12" fill="#17261f" text-anchor="middle" font-weight="normal">内側 ⇔ 外側</text><rect x="380" y="128" width="168" height="30" rx="8" fill="#dff0e9" stroke="#12705f" stroke-width="2"/><text x="464.0" y="147.32" font-size="12" fill="#17261f" text-anchor="middle" font-weight="normal">近位 ⇔ 遠位（四肢）</text><rect x="380" y="166" width="168" height="30" rx="8" fill="#dff0e9" stroke="#12705f" stroke-width="2"/><text x="464.0" y="185.32" font-size="12" fill="#17261f" text-anchor="middle" font-weight="normal">浅 ⇔ 深（体表から）</text><rect x="380" y="204" width="168" height="50" rx="8" fill="#ffffff" stroke="#12705f" stroke-width="2"/><text x="464.0" y="225.82" font-size="12" fill="#17261f" text-anchor="middle" font-weight="normal">内側＝正中に近い</text><text x="464.0" y="240.82" font-size="12" fill="#17261f" text-anchor="middle" font-weight="normal">外側＝正中から遠い</text><rect x="14" y="330" width="534" height="56" rx="8" fill="#fcf8ec" stroke="#e3d9bd" stroke-width="2"/><text x="281.0" y="354.82" font-size="12" fill="#17261f" text-anchor="middle" font-weight="normal">矢状面は左右に分ける。前頭面（冠状面）は前後に分ける。水平面（横断面）は上下に分ける。</text><text x="281.0" y="369.82" font-size="12" fill="#17261f" text-anchor="middle" font-weight="normal">手のひらを前に向けた「解剖学的立位」を基準にする。</text></svg>